<svg width="48" height="48" viewBox="0 0 48 48" fill="none" xmlns="http://www.w3.org/2000/svg">
    <circle cx="24" cy="24" r="24" fill="#FFC942"/>
    <g filter="url(#filter0_d_306:55)">
    <path d="M8.97998 21.6821C9.90502 20.8854 10.6887 19.964 11.7404 19.3001C11.3191 20.5873 9.52204 20.8989 8.97703 22.1374C11.8081 21.8474 14.9633 21.9883 17.2818 23.6902C18.36 24.6576 18.6429 26.6548 17.217 27.4732C15.09 28.9529 13.0131 30.7767 10.344 31.3295C8.04315 31.3728 6.91188 29.1995 6.14297 27.5356C6.7528 27.0424 7.62481 27.167 8.36426 27.0044C7.83693 26.4516 7.00026 26.3026 6.39338 25.8392C6.18422 25.56 5.95443 25.2945 5.71875 25.037C6.2726 23.5574 7.62481 22.5357 8.97998 21.6821Z" fill="black"/>
    <path d="M5.89844 33.6384C6.49353 33.698 7.07978 33.8579 7.68077 33.847C8.48797 33.763 9.23626 33.3972 10.0523 33.3755C12.3944 33.5869 14.4772 34.6437 16.6602 35.3565C18.0772 35.8388 19.4 36.641 20.9525 36.7006C23.9103 37.0691 26.7385 35.8659 29.6668 35.8334C29.4429 36.1776 29.166 36.5 28.7594 36.6681C26.3437 37.8035 23.6128 38.1097 20.9496 38.3672C19.3823 38.5135 17.7915 38.2073 16.398 37.5407C13.7584 36.687 11.3014 35.3646 8.54984 34.8009C7.59533 34.5977 6.52594 34.4053 5.89844 33.6384Z" fill="black"/>
    <path d="M19.8652 17.6085L11.3311 15.8703L11.0083 17.799L19.5424 19.5372L19.8652 17.6085Z" fill="black"/>
    <path d="M21.479 16.1001L10.3125 13.8258L9.97276 15.856L21.1393 18.1303L21.479 16.1001Z" fill="black"/>
    <path d="M23.1602 14.7106L9.19141 11.8655L8.85167 13.8957L22.8204 16.7408L23.1602 14.7106Z" fill="black"/>
    <path d="M25.4818 13.084L8.13037 9.54993L7.74816 11.8339L25.0996 15.3679L25.4818 13.084Z" fill="black"/>
    <path d="M21.9104 13.5638L21.6298 15.2403L20.2274 14.9547L20.5079 13.2781L21.9104 13.5638ZM20.2274 14.9547L19.9468 16.6313L18.5443 16.3456L18.8249 14.669L20.2274 14.9547ZM18.8249 14.669L17.4224 14.3834L17.703 12.7068L19.1054 12.9925L18.8249 14.669ZM17.4224 14.3834L17.1418 16.06L15.7393 15.7743L16.0199 14.0977L17.4224 14.3834ZM15.7393 15.7743L15.4587 17.4509L14.0563 17.1652L14.3368 15.4886L15.7393 15.7743ZM17.1418 16.06L18.5443 16.3456L18.2638 18.0222L16.8613 17.7365L17.1418 16.06Z" fill="white"/>
    <path d="M36.6367 21.0243L28.1025 19.2861L27.7798 21.2148L36.3139 22.953L36.6367 21.0243Z" fill="black"/>
    <path d="M38.25 19.516L27.0835 17.2416L26.7438 19.2718L37.9103 21.5462L38.25 19.516Z" fill="black"/>
    <path d="M39.9312 18.1264L25.9624 15.2813L25.6227 17.3115L39.5914 20.1566L39.9312 18.1264Z" fill="black"/>
    <path d="M41.6724 16.3816L24.9014 12.9658L24.5192 15.2497L41.2902 18.6656L41.6724 16.3816Z" fill="black"/>
    <path d="M38.6814 16.9796L38.4008 18.6561L36.9984 18.3705L37.2789 16.6939L38.6814 16.9796ZM36.9984 18.3705L36.7178 20.0471L35.3153 19.7614L35.5959 18.0848L36.9984 18.3705ZM35.5959 18.0848L34.1934 17.7992L34.474 16.1226L35.8764 16.4083L35.5959 18.0848ZM34.1934 17.7992L33.9128 19.4758L32.5103 19.1901L32.7909 17.5135L34.1934 17.7992ZM32.5103 19.1901L32.2297 20.8667L30.8273 20.581L31.1078 18.9044L32.5103 19.1901ZM33.9128 19.4758L35.3153 19.7614L35.0348 21.438L33.6323 21.1523L33.9128 19.4758Z" fill="white"/>
    </g>
    <defs>
    <filter id="filter0_d_306:55" x="1.71875" y="6.54993" width="44.5625" height="36.8876" filterUnits="userSpaceOnUse" colorInterpolationFilters="sRGB">
    <feFlood floodOpacity="0" result="BackgroundImageFix"/>
    <feColorMatrix in="SourceAlpha" type="matrix" values="0 0 0 0 0 0 0 0 0 0 0 0 0 0 0 0 0 0 127 0" result="hardAlpha"/>
    <feOffset dy="1"/>
    <feGaussianBlur stdDeviation="2"/>
    <feColorMatrix type="matrix" values="0 0 0 0 0 0 0 0 0 0 0 0 0 0 0 0 0 0 0.25 0"/>
    <feBlend mode="normal" in2="BackgroundImageFix" result="effect1_dropShadow_306:55"/>
    <feBlend mode="normal" in="SourceGraphic" in2="effect1_dropShadow_306:55" result="shape"/>
    </filter>
    </defs>
    </svg>